<svg width="36" height="41" viewBox="0 0 36 41" fill="none" xmlns="http://www.w3.org/2000/svg">
<path d="M9.23434 11.3471V8.22375C9.23434 3.76366 13.1433 0.125 17.9989 0.125C22.8545 0.125 26.7635 3.76366 26.7635 8.22375V11.3471H32.8215C33.0991 11.3472 33.3662 11.4411 33.5692 11.6098C33.7721 11.7784 33.8958 12.0093 33.9153 12.2559L35.9978 39.5849C36.0161 39.8431 35.9192 40.0973 35.7281 40.2921C35.537 40.4869 35.2673 40.6066 34.9776 40.625H1.09382C0.803719 40.625 0.525502 40.5223 0.320371 40.3396C0.115241 40.1568 0 39.909 0 39.6505V39.5849L2.08246 12.2559C2.10112 12.0087 2.22444 11.7771 2.42749 11.6078C2.63054 11.4385 2.89817 11.3442 3.17628 11.3439L9.23434 11.3471ZM12.5228 11.3471H23.4785V8.22375C23.4785 5.35343 21.0244 3.05154 17.9989 3.05154C14.9734 3.05154 12.5228 5.35343 12.5228 8.22375V11.3471ZM3.43921 37.7016H32.5586L30.7776 14.2767H5.22368L3.43921 37.7016Z" fill="#D88131"/>
</svg>
