<svg width="56" height="56" viewBox="0 0 56 56" fill="none" xmlns="http://www.w3.org/2000/svg">
<path d="M28 2C13.6406 2 2 13.6406 2 28C2 42.3594 13.6406 54 28 54C42.3594 54 54 42.3594 54 28C54 13.6406 42.3594 2 28 2Z" fill="#D88131" stroke="#C7C7C7" stroke-width="4"/>
<path fill-rule="evenodd" clip-rule="evenodd" d="M27.6718 19H42.4937C43.0459 19 43.4937 19.4477 43.4937 20C43.4937 20.5523 43.0459 21 42.4937 21H27.6718C27.2278 22.7252 25.6617 24 23.7979 24C21.934 24 20.3679 22.7252 19.9239 21H15.3291C14.7768 21 14.3291 20.5523 14.3291 20C14.3291 19.4477 14.7768 19 15.3291 19H19.9239C20.3679 17.2748 21.934 16 23.7979 16C25.6617 16 27.2278 17.2748 27.6718 19Z" fill="url(#paint0_linear_532_3427)"/>
<path fill-rule="evenodd" clip-rule="evenodd" d="M41.6464 27H42.4937C43.0459 27 43.4937 27.4477 43.4937 28C43.4937 28.5523 43.0459 29 42.4937 29H41.6464C41.2024 30.7252 39.6363 32 37.7725 32C35.9086 32 34.3425 30.7252 33.8985 29H15.3291C14.7768 29 14.3291 28.5523 14.3291 28C14.3291 27.4477 14.7768 27 15.3291 27H33.8985C34.3425 25.2748 35.9086 24 37.7725 24C39.6363 24 41.2024 25.2748 41.6464 27Z" fill="url(#paint1_linear_532_3427)"/>
<path fill-rule="evenodd" clip-rule="evenodd" d="M32.5322 35H42.4937C43.0459 35 43.4937 35.4477 43.4937 36C43.4937 36.5523 43.0459 37 42.4937 37H32.5322C32.0882 38.7252 30.5221 40 28.6582 40C26.7944 40 25.2283 38.7252 24.7842 37H15.3291C14.7768 37 14.3291 36.5523 14.3291 36C14.3291 35.4477 14.7768 35 15.3291 35H24.7842C25.2283 33.2748 26.7944 32 28.6582 32C30.5221 32 32.0882 33.2748 32.5322 35Z" fill="url(#paint2_linear_532_3427)"/>
<defs>
<linearGradient id="paint0_linear_532_3427" x1="29.519" y1="13.3333" x2="29.336" y2="24.1738" gradientUnits="userSpaceOnUse">
<stop offset="0.41123" stop-opacity="0.78"/>
<stop offset="0.601329" stop-color="#070707"/>
<stop offset="0.82623" stop-color="#666666"/>
</linearGradient>
<linearGradient id="paint1_linear_532_3427" x1="29.519" y1="21.3333" x2="29.336" y2="32.1738" gradientUnits="userSpaceOnUse">
<stop offset="0.41123" stop-opacity="0.78"/>
<stop offset="0.601329" stop-color="#070707"/>
<stop offset="0.82623" stop-color="#666666"/>
</linearGradient>
<linearGradient id="paint2_linear_532_3427" x1="29.519" y1="29.3333" x2="29.336" y2="40.1738" gradientUnits="userSpaceOnUse">
<stop offset="0.41123" stop-opacity="0.78"/>
<stop offset="0.601329" stop-color="#070707"/>
<stop offset="0.82623" stop-color="#666666"/>
</linearGradient>
</defs>
</svg>
