<svg width="29" height="23" viewBox="0 0 29 23" fill="none" xmlns="http://www.w3.org/2000/svg">
<path d="M13.0075 16.0963C12.9241 16.0361 12.8465 15.9666 12.7758 15.8887L11.6178 14.5387C11.383 14.2773 11.2399 13.9301 11.2144 13.5603C11.1889 13.1905 11.2827 12.8228 11.4788 12.524C10.3939 12.8676 9.28863 13.1244 8.17129 13.2925L7.8285 13.3444C7.24217 13.4381 6.65113 13.4902 6.05894 13.5002C5.14941 13.4895 4.25144 13.7291 3.44378 14.1981C2.63613 14.667 1.94348 15.3509 1.42658 16.1898C1.57478 16.1279 1.73167 16.0963 1.88982 16.0963H13.0075ZM13.517 11.6621C13.3364 11.7729 13.1508 11.8734 12.9611 11.9633C13.1769 12.0282 13.3745 12.1532 13.5356 12.3267C13.4879 12.1091 13.4816 11.8827 13.517 11.6621ZM15.3236 10.1875L15.0828 10.4263C15.1784 10.4393 15.272 10.4673 15.3607 10.5094C15.3342 10.4048 15.3217 10.2963 15.3236 10.1875ZM27.3678 6.23096H18.1031C17.9138 6.23027 17.7288 6.2946 17.5731 6.41528C17.4174 6.53596 17.2984 6.7072 17.2322 6.90596C17.0234 7.51419 16.7628 8.09844 16.4539 8.65058C16.679 8.59838 16.9121 8.60998 17.1321 8.68433C17.3521 8.75868 17.5521 8.89343 17.7139 9.07635L18.7423 10.2187C19.0003 10.512 19.145 10.9075 19.145 11.3194C19.145 11.7314 19.0003 12.1268 18.7423 12.4202C18.6143 12.5663 18.4614 12.682 18.2927 12.7605C18.124 12.839 17.9429 12.8787 17.7603 12.8771C17.6117 12.8807 17.4639 12.8525 17.3248 12.794C17.3949 13.0587 17.3991 13.3398 17.337 13.607C17.275 13.8742 17.149 14.1174 16.9728 14.3102C16.7124 14.6024 16.3592 14.7668 15.9907 14.7671C15.6511 14.7764 15.3206 14.643 15.0642 14.3933C15.0784 14.5243 15.0784 14.6568 15.0642 14.7879C15.0656 14.9926 15.0302 15.1956 14.9602 15.3847C14.8902 15.5738 14.7869 15.7452 14.6566 15.8887C14.5859 15.9666 14.5083 16.0361 14.425 16.0963H27.3678C27.7111 16.0956 28.042 16.2403 28.2942 16.5013V7.26942C28.2942 6.99401 28.1966 6.72987 28.0229 6.53512C27.8491 6.34037 27.6135 6.23096 27.3678 6.23096ZM27.3678 16.6156H1.92688C1.76363 16.6149 1.6031 16.6625 1.46156 16.7537C1.32001 16.8449 1.20248 16.9763 1.12085 17.1348C0.70881 17.9216 0.494323 18.8187 0.500114 19.731V20.6552C0.504999 21.2382 0.715062 21.7955 1.08462 22.2059C1.45417 22.6162 1.95332 22.8464 2.4735 22.8463H14.3972C14.5976 22.8463 14.7927 22.7735 14.9531 22.6387L17.1766 20.7694V21.8079C17.1766 22.0833 17.2742 22.3474 17.4479 22.5422C17.6217 22.7369 17.8573 22.8463 18.1031 22.8463H27.3678C27.6135 22.8463 27.8491 22.7369 28.0229 22.5422C28.1966 22.3474 28.2942 22.0833 28.2942 21.8079V17.654C28.2942 17.3786 28.1966 17.1145 28.0229 16.9197C27.8491 16.725 27.6135 16.6156 27.3678 16.6156Z" fill="#303640"/>
<path d="M13.1 15.5148C13.1858 15.6129 13.2882 15.691 13.4011 15.7445C13.514 15.7979 13.6353 15.8258 13.7578 15.8263C13.9403 15.8235 14.1179 15.7603 14.2684 15.6447C14.4189 15.5291 14.5357 15.3662 14.6039 15.1766C14.6722 14.9869 14.689 14.7789 14.6522 14.5786C14.6154 14.3783 14.5267 14.1946 14.3971 14.0506L13.202 12.711C13.0284 12.5175 12.7936 12.409 12.5488 12.409C12.304 12.409 12.0692 12.5175 11.8956 12.711C11.8088 12.8075 11.7399 12.9224 11.6928 13.0489C11.6458 13.1754 11.6216 13.3112 11.6216 13.4483C11.6216 13.5854 11.6458 13.7211 11.6928 13.8476C11.7399 13.9742 11.8088 14.089 11.8956 14.1856L13.1 15.5148ZM15.3236 13.9363C15.4946 14.132 15.7277 14.244 15.9721 14.2479C16.1596 14.2556 16.3449 14.1993 16.5032 14.0864C16.6616 13.9736 16.7856 13.8095 16.859 13.6158C16.9323 13.4222 16.9514 13.2082 16.9138 13.0021C16.8762 12.796 16.7837 12.6076 16.6484 12.4617L15.5367 11.2156C15.4505 11.1182 15.3481 11.041 15.2352 10.9883C15.1223 10.9355 15.0012 10.9084 14.8789 10.9084C14.7566 10.9084 14.6355 10.9355 14.5226 10.9883C14.4097 11.041 14.3072 11.1182 14.2211 11.2156C14.0485 11.4101 13.9517 11.6733 13.9517 11.9477C13.9517 12.222 14.0485 12.4852 14.2211 12.6798L15.3236 13.9363ZM17.1024 12.0567C17.189 12.153 17.2916 12.2291 17.4045 12.2808C17.5174 12.3325 17.6383 12.3587 17.7602 12.3579C18.0032 12.3567 18.2362 12.2486 18.4087 12.0567C18.5813 11.8622 18.6781 11.599 18.6781 11.3246C18.6781 11.0503 18.5813 10.7871 18.4087 10.5925L17.3896 9.4398C17.3032 9.34298 17.2007 9.26617 17.0878 9.21377C16.9749 9.16137 16.854 9.1344 16.7318 9.1344C16.6096 9.1344 16.4887 9.16137 16.3758 9.21377C16.2629 9.26617 16.1604 9.34298 16.074 9.4398C15.9876 9.53663 15.9191 9.65158 15.8724 9.77808C15.8256 9.90459 15.8015 10.0402 15.8015 10.1771C15.8015 10.314 15.8256 10.4496 15.8724 10.5761C15.9191 10.7026 15.9876 10.8176 16.074 10.9144L17.1024 12.0567ZM27.3677 5.71173C27.7085 5.70533 28.0391 5.84243 28.2942 6.09596V2.56519C28.2942 2.22659 28.2344 1.89135 28.1182 1.57878C28.0021 1.26622 27.8318 0.982533 27.6174 0.744077C27.4029 0.505622 27.1484 0.31712 26.8687 0.189444C26.5889 0.0617691 26.2893 -0.00255297 25.9872 0.000188697H19.502C19.1987 -0.0039265 18.8977 0.0593053 18.6163 0.186237C18.3349 0.313169 18.0787 0.501289 17.8626 0.739745C17.6464 0.978201 17.4745 1.26227 17.3567 1.57558C17.239 1.88889 17.1777 2.22522 17.1765 2.56519V6.12711C17.4263 5.86046 17.758 5.71173 18.103 5.71173H27.3677Z" fill="#303640"/>
</svg>
