<svg width="29" height="19" viewBox="0 0 29 19" fill="none" xmlns="http://www.w3.org/2000/svg">
<path d="M28.6853 3.08471C28.7356 3.24028 28.6721 3.41195 28.5659 3.54607L25.1792 7.84856C25.0535 8.01487 24.7896 8.10607 24.5691 8.10607C24.5062 8.10607 24.3303 8.09534 24.2618 8.07925L21.5474 7.51059V17.7035C21.5474 18.0147 21.2898 18.24 20.9191 18.24H7.72409C7.35337 18.24 7.09575 18.0147 7.09575 17.7035V7.51059L4.65782 8.08461C4.37507 8.15972 4.13002 8.06315 3.97294 7.85393L0.611353 3.56216C0.504536 3.42268 0.47312 3.26711 0.523386 3.11153C0.56737 2.95059 0.69932 2.84329 0.86897 2.76819L7.72409 0H10.8658C11.2365 0 11.4941 0.219953 11.4941 0.536471C11.4941 1.6416 13.31 2.42485 14.6043 2.42485C15.8987 2.42485 17.7774 1.64696 17.7774 0.536471C17.7774 0.225318 18.035 0 18.4058 0H21.5474L28.3334 2.71454C28.5094 2.78965 28.635 2.92376 28.6853 3.08471Z" fill="#303640"/>
</svg>
