<svg width="93" height="93" viewBox="0 0 93 93" fill="none" xmlns="http://www.w3.org/2000/svg">
<path d="M70.5239 83.382C70.5239 79.0747 69.436 74.8434 67.3695 71.1132C65.303 67.383 62.3308 64.2855 58.7515 62.1319C55.1722 59.9783 51.1121 58.8445 46.9791 58.8445C42.8461 58.8445 38.786 59.9783 35.2067 62.1319C31.6275 64.2855 28.6552 67.383 26.5887 71.1132C24.5223 74.8434 23.4343 79.0747 23.4343 83.382M61.9694 39.839C61.9694 48.1179 55.258 54.8292 46.9791 54.8292C38.7002 54.8292 31.9888 48.1179 31.9888 39.839C31.9888 31.5601 38.7002 24.8488 46.9791 24.8488C55.258 24.8488 61.9694 31.5601 61.9694 39.839ZM87 46.5C87 68.8675 68.8675 87 46.5 87C24.1325 87 6 68.8675 6 46.5C6 24.1325 24.1325 6 46.5 6C68.8675 6 87 24.1325 87 46.5Z" stroke="#D88131" stroke-width="9"/>
</svg>
