<svg width="27" height="20" viewBox="0 0 27 20" fill="none" xmlns="http://www.w3.org/2000/svg">
<path d="M13.2562 11.5L13.1994 11.7475C12.8181 12.7821 12.0912 13.6785 11.1233 14.3078C10.1554 14.9371 8.99627 15.267 7.8125 15.25C4.66813 15.25 2.125 13.375 2.125 10.375C2.125 7.75 4.5625 6.25 4.5625 4.75C6.11437 6.9025 11.3712 11.0875 13.2562 11.5ZM13.7437 11.5L13.8006 11.7475C14.1819 12.7821 14.9088 13.6785 15.8767 14.3078C16.8446 14.9371 18.0037 15.267 19.1875 15.25C22.3319 15.25 24.875 13.375 24.875 10.375C24.875 7.75 22.4375 6.25 22.4375 4.75C20.8856 6.9025 15.6287 11.0875 13.7437 11.5Z" fill="#303640"/>
<path d="M4.5625 4.75C6.1875 7 11.875 11.5 13.5 11.5C15.125 11.5 20.8125 7 22.4375 4.75" stroke="#303640" stroke-width="2" stroke-linecap="round" stroke-linejoin="round"/>
<path d="M4.5625 1V4.75C4.5625 6.25 2.125 7.75 2.125 10.375C2.125 13.375 4.66813 15.25 7.8125 15.25C9.00027 15.2649 10.1624 14.9307 11.1308 14.2957C12.0992 13.6606 12.8236 12.7577 13.1994 11.7175M22.4375 1V4.75C22.4375 6.25 24.875 7.75 24.875 10.375C24.875 13.375 22.3319 15.25 19.1875 15.25C18.3712 15.259 17.5625 15.104 16.8175 14.7958C16.0725 14.4875 15.4091 14.0335 14.8731 13.465" stroke="#303640" stroke-width="2" stroke-linecap="round" stroke-linejoin="round"/>
<path d="M3.75 14.125L4.5625 19C7.45527 18.1321 10.4614 17.6276 13.5 17.5C16.5386 17.6276 19.5447 18.1321 22.4375 19L23.25 14.245" stroke="#303640" stroke-width="2" stroke-linecap="round" stroke-linejoin="round"/>
</svg>
