<svg width="27" height="25" viewBox="0 0 27 25" fill="none" xmlns="http://www.w3.org/2000/svg">
<path d="M25.1936 21.5917L20.808 16.1875H16.4396C16.3454 16.7299 16.1319 17.2107 15.8325 17.5543C15.5331 17.8979 15.1649 18.085 14.7857 18.0859H12.2143C11.8351 18.085 11.4669 17.8979 11.1675 17.5543C10.8681 17.2107 10.6546 16.7299 10.5604 16.1875H6.19198L1.8064 21.5917C1.16954 22.3764 1.59168 23.7812 2.46426 23.7812H24.5357C25.4083 23.7812 25.8305 22.3764 25.1936 21.5917Z" stroke="#303640" stroke-width="2" stroke-linecap="round" stroke-linejoin="round"/>
<path d="M14.7857 10.4922H12.2143C11.2675 10.4922 10.5 11.6255 10.5 13.0234V15.5547C10.5 16.9527 11.2675 18.0859 12.2143 18.0859H14.7857C15.7325 18.0859 16.5 16.9527 16.5 15.5547V13.0234C16.5 11.6255 15.7325 10.4922 14.7857 10.4922Z" stroke="#303640" stroke-width="2" stroke-linecap="round" stroke-linejoin="round"/>
<path d="M12.2144 10.4922H14.7858C15.165 10.4932 15.5332 10.6802 15.8326 11.0238C16.132 11.3675 16.3455 11.8483 16.4397 12.3906H20.7858L19.3715 2.98197C19.2868 2.41934 19.0746 1.91625 18.77 1.55586C18.4654 1.19547 18.0866 0.99938 17.6962 1H9.30393C8.91426 1.00068 8.53636 1.19736 8.23253 1.55764C7.9287 1.91792 7.71706 2.4203 7.6325 2.98197L6.21436 12.3906H10.5605C10.6547 11.8483 10.8682 11.3675 11.1676 11.0238C11.467 10.6802 11.8352 10.4932 12.2144 10.4922Z" stroke="#303640" stroke-width="2" stroke-linecap="round" stroke-linejoin="round"/>
<path d="M10.5001 12.3906H6.21436V16.1875H10.5001V12.3906Z" stroke="#303640" stroke-width="2" stroke-linecap="round" stroke-linejoin="round"/>
<path d="M20.7857 12.3906H16.5V16.1875H20.7857V12.3906Z" stroke="#303640" stroke-width="2" stroke-linecap="round" stroke-linejoin="round"/>
<path d="M14.7857 12.3906H12.2142C11.9775 12.3906 11.7856 12.6739 11.7856 13.0234V15.5547C11.7856 15.9042 11.9775 16.1875 12.2142 16.1875H14.7857C15.0223 16.1875 15.2142 15.9042 15.2142 15.5547V13.0234C15.2142 12.6739 15.0223 12.3906 14.7857 12.3906Z" stroke="#303640" stroke-width="2" stroke-linecap="round" stroke-linejoin="round"/>
</svg>
