<svg width="24" height="24" viewBox="0 0 24 24" fill="none" xmlns="http://www.w3.org/2000/svg">
<path d="M12.1919 12.5268C15.5056 12.5268 18.1919 9.84054 18.1919 6.52683C18.1919 3.21312 15.5056 0.526855 12.1919 0.526855C8.87819 0.526855 6.19189 3.21312 6.19189 6.52683C6.19189 9.84054 8.87819 12.5268 12.1919 12.5268Z" fill="#D88131"/>
<path d="M21.6161 23.9553C21.6161 22.2313 21.1807 20.5377 20.3535 19.0446C19.5264 17.5516 18.3367 16.3118 16.9041 15.4498C15.4715 14.5878 13.8464 14.1339 12.1921 14.1339C10.5378 14.1339 8.91271 14.5878 7.48008 15.4498C6.04745 16.3118 4.85778 17.5516 4.03065 19.0446C3.20352 20.5377 2.76807 22.2313 2.76807 23.9553" fill="#D88131"/>
</svg>
