<svg width="24" height="24" viewBox="0 0 24 24" fill="none" xmlns="http://www.w3.org/2000/svg">
<mask id="path-1-inside-1_620_1859" fill="white">
<path d="M11.547 1.86602C11.6175 1.86602 11.6874 1.85688 11.7525 1.83914C11.8176 1.8214 11.8768 1.7954 11.9267 1.76262C11.9765 1.72983 12.0161 1.69092 12.0431 1.64808C12.0701 1.60525 12.084 1.55935 12.084 1.51299V0.35303C12.084 0.259401 12.0274 0.169606 11.9267 0.1034C11.826 0.0371942 11.6894 0 11.547 0C11.4046 0 11.268 0.0371942 11.1674 0.1034C11.0667 0.169606 11.0101 0.259401 11.0101 0.35303V1.51299C11.0101 1.55935 11.024 1.60525 11.051 1.64808C11.0779 1.69092 11.1175 1.72983 11.1674 1.76262C11.2172 1.7954 11.2764 1.8214 11.3415 1.83914C11.4067 1.85688 11.4765 1.86602 11.547 1.86602ZM14.0417 2.18299C14.171 2.22223 14.3187 2.22609 14.4523 2.19374C14.5859 2.16138 14.6945 2.09545 14.7542 2.01046L15.5472 0.88076C15.5773 0.838618 15.5944 0.792976 15.5976 0.746463C15.6007 0.699951 15.5899 0.653485 15.5656 0.609742C15.5414 0.565999 15.5042 0.525843 15.4562 0.491586C15.4083 0.457329 15.3505 0.429647 15.2862 0.410135C15.2219 0.390623 15.1524 0.379665 15.0816 0.377894C15.0108 0.376122 14.9402 0.383571 14.8739 0.399812C14.8075 0.416053 14.7467 0.440765 14.6949 0.472526C14.6431 0.504286 14.6014 0.542467 14.5722 0.58487L13.7791 1.71452C13.7496 1.75661 13.7329 1.80212 13.7301 1.84845C13.7273 1.89477 13.7385 1.941 13.7628 1.98451C13.7872 2.02801 13.8244 2.06793 13.8722 2.10198C13.9201 2.13604 13.9777 2.16356 14.0417 2.18299ZM8.49326 2.01046C8.52233 2.05304 8.56395 2.09142 8.61572 2.12336C8.66749 2.1553 8.72838 2.18017 8.79487 2.19654C8.86136 2.2129 8.93213 2.22044 9.00307 2.2187C9.07402 2.21697 9.14374 2.206 9.20819 2.18644C9.27265 2.16687 9.33056 2.13909 9.37859 2.10472C9.42661 2.07034 9.46378 2.03004 9.48796 1.98615C9.51214 1.94226 9.52284 1.89565 9.51944 1.84903C9.51605 1.8024 9.49862 1.75668 9.46817 1.71452L8.67528 0.58482C8.64604 0.542416 8.60432 0.504235 8.55254 0.472475C8.50076 0.440715 8.43994 0.416003 8.37357 0.399762C8.30721 0.383521 8.23661 0.376072 8.16585 0.377843C8.09509 0.379615 8.02555 0.390572 7.96126 0.410085C7.89696 0.429597 7.83917 0.457278 7.79122 0.491536C7.74326 0.525793 7.70608 0.565949 7.68183 0.609692C7.65757 0.653435 7.64672 0.6999 7.64988 0.746413C7.65305 0.792926 7.67018 0.838567 7.70029 0.880709L8.49326 2.01046ZM6.40291 2.83851C6.45034 2.87283 6.50758 2.90068 6.57138 2.92045C6.63517 2.94022 6.70426 2.95154 6.77471 2.95376C6.84516 2.95598 6.91558 2.94905 6.98195 2.93337C7.04833 2.9177 7.10936 2.89358 7.16155 2.86239C7.21375 2.83121 7.2561 2.79357 7.28617 2.75163C7.31625 2.70968 7.33346 2.66425 7.33683 2.61794C7.34021 2.57162 7.32967 2.52532 7.30583 2.48167C7.28199 2.43803 7.2453 2.39791 7.19787 2.36359L5.87595 1.40778C5.77984 1.33932 5.64647 1.29861 5.50491 1.29453C5.36334 1.29045 5.22507 1.32333 5.12022 1.386C5.01537 1.44867 4.95245 1.53605 4.94517 1.62909C4.93789 1.72214 4.98685 1.8133 5.08137 1.88271L6.40291 2.83851ZM16.4471 2.95411C16.522 2.95418 16.596 2.94393 16.6645 2.92402C16.7329 2.90411 16.7943 2.87498 16.8445 2.83851L18.1661 1.88271C18.2141 1.84848 18.2514 1.80833 18.2758 1.76458C18.3001 1.72083 18.3111 1.67435 18.3079 1.62781C18.3048 1.58127 18.2878 1.53559 18.2577 1.49341C18.2276 1.45123 18.1851 1.41338 18.1327 1.38204C18.0803 1.35071 18.0189 1.3265 17.9522 1.31083C17.8855 1.29515 17.8147 1.28831 17.744 1.2907C17.6732 1.2931 17.6039 1.30467 17.5399 1.32477C17.476 1.34486 17.4188 1.37308 17.3715 1.40778L16.05 2.36359C15.98 2.41419 15.9339 2.47706 15.9172 2.54457C15.9006 2.61208 15.9141 2.68131 15.9562 2.74386C15.9982 2.8064 16.067 2.85957 16.1542 2.89689C16.2414 2.93422 16.3431 2.95409 16.4471 2.95411Z"/>
<path d="M10.0078 5.19196H13.2617L11.6258 4.23389L10.0078 5.19196Z"/>
<path d="M6.45435 5.19204H7.83564L7.31965 4.44336L6.45435 5.19204Z"/>
<path d="M9.22504 7.69255L9.82602 8.09122L8.32246 5.89795H6.63013L9.06933 7.57484C9.13261 7.60689 9.18554 7.64691 9.22504 7.69255Z"/>
<path d="M13.749 5.89795H9.50122L11.6243 8.97849L13.749 5.89795Z"/>
<path d="M14.6632 8.27393L12.9562 9.43893C15.3468 9.66058 17.5207 10.47 19.0393 11.704C20.558 12.9379 21.3085 14.5046 21.1396 16.0881C20.9706 17.6715 19.8947 19.154 18.1288 20.2364C16.363 21.3188 14.0385 21.9207 11.6243 21.9207C9.21003 21.9207 6.8856 21.3188 5.11974 20.2364C3.35388 19.154 2.27797 17.6715 2.109 16.0881C1.94002 14.5046 2.69055 12.9379 4.20922 11.704C5.72789 10.47 7.90171 9.66058 10.2923 9.43893L8.5854 8.27393C6.19784 8.70229 4.07874 9.61793 2.53341 10.8889C0.884192 12.2391 -0.0100854 13.9206 8.58138e-05 15.6524C8.58138e-05 19.8665 5.21446 23.295 11.6239 23.295C18.0333 23.295 23.2477 19.8665 23.2477 15.6524C23.2578 13.9223 22.3652 12.2424 20.719 10.8928C19.1735 9.61989 17.0529 8.70283 14.6632 8.27393Z"/>
<path d="M8.83737 4.95492L10.2258 4.13281H8.27075L8.83737 4.95492Z"/>
<path d="M15.93 4.44482L15.4147 5.19204H16.7936L15.93 4.44482Z"/>
<path d="M14.9802 4.13281H13.0339L14.4202 4.94473L14.9802 4.13281Z"/>
<path d="M14.9281 5.89795L13.4243 8.07841L16.6184 5.89795H14.9281Z"/>
</mask>
<path d="M11.547 1.86602C11.6175 1.86602 11.6874 1.85688 11.7525 1.83914C11.8176 1.8214 11.8768 1.7954 11.9267 1.76262C11.9765 1.72983 12.0161 1.69092 12.0431 1.64808C12.0701 1.60525 12.084 1.55935 12.084 1.51299V0.35303C12.084 0.259401 12.0274 0.169606 11.9267 0.1034C11.826 0.0371942 11.6894 0 11.547 0C11.4046 0 11.268 0.0371942 11.1674 0.1034C11.0667 0.169606 11.0101 0.259401 11.0101 0.35303V1.51299C11.0101 1.55935 11.024 1.60525 11.051 1.64808C11.0779 1.69092 11.1175 1.72983 11.1674 1.76262C11.2172 1.7954 11.2764 1.8214 11.3415 1.83914C11.4067 1.85688 11.4765 1.86602 11.547 1.86602ZM14.0417 2.18299C14.171 2.22223 14.3187 2.22609 14.4523 2.19374C14.5859 2.16138 14.6945 2.09545 14.7542 2.01046L15.5472 0.88076C15.5773 0.838618 15.5944 0.792976 15.5976 0.746463C15.6007 0.699951 15.5899 0.653485 15.5656 0.609742C15.5414 0.565999 15.5042 0.525843 15.4562 0.491586C15.4083 0.457329 15.3505 0.429647 15.2862 0.410135C15.2219 0.390623 15.1524 0.379665 15.0816 0.377894C15.0108 0.376122 14.9402 0.383571 14.8739 0.399812C14.8075 0.416053 14.7467 0.440765 14.6949 0.472526C14.6431 0.504286 14.6014 0.542467 14.5722 0.58487L13.7791 1.71452C13.7496 1.75661 13.7329 1.80212 13.7301 1.84845C13.7273 1.89477 13.7385 1.941 13.7628 1.98451C13.7872 2.02801 13.8244 2.06793 13.8722 2.10198C13.9201 2.13604 13.9777 2.16356 14.0417 2.18299ZM8.49326 2.01046C8.52233 2.05304 8.56395 2.09142 8.61572 2.12336C8.66749 2.1553 8.72838 2.18017 8.79487 2.19654C8.86136 2.2129 8.93213 2.22044 9.00307 2.2187C9.07402 2.21697 9.14374 2.206 9.20819 2.18644C9.27265 2.16687 9.33056 2.13909 9.37859 2.10472C9.42661 2.07034 9.46378 2.03004 9.48796 1.98615C9.51214 1.94226 9.52284 1.89565 9.51944 1.84903C9.51605 1.8024 9.49862 1.75668 9.46817 1.71452L8.67528 0.58482C8.64604 0.542416 8.60432 0.504235 8.55254 0.472475C8.50076 0.440715 8.43994 0.416003 8.37357 0.399762C8.30721 0.383521 8.23661 0.376072 8.16585 0.377843C8.09509 0.379615 8.02555 0.390572 7.96126 0.410085C7.89696 0.429597 7.83917 0.457278 7.79122 0.491536C7.74326 0.525793 7.70608 0.565949 7.68183 0.609692C7.65757 0.653435 7.64672 0.6999 7.64988 0.746413C7.65305 0.792926 7.67018 0.838567 7.70029 0.880709L8.49326 2.01046ZM6.40291 2.83851C6.45034 2.87283 6.50758 2.90068 6.57138 2.92045C6.63517 2.94022 6.70426 2.95154 6.77471 2.95376C6.84516 2.95598 6.91558 2.94905 6.98195 2.93337C7.04833 2.9177 7.10936 2.89358 7.16155 2.86239C7.21375 2.83121 7.2561 2.79357 7.28617 2.75163C7.31625 2.70968 7.33346 2.66425 7.33683 2.61794C7.34021 2.57162 7.32967 2.52532 7.30583 2.48167C7.28199 2.43803 7.2453 2.39791 7.19787 2.36359L5.87595 1.40778C5.77984 1.33932 5.64647 1.29861 5.50491 1.29453C5.36334 1.29045 5.22507 1.32333 5.12022 1.386C5.01537 1.44867 4.95245 1.53605 4.94517 1.62909C4.93789 1.72214 4.98685 1.8133 5.08137 1.88271L6.40291 2.83851ZM16.4471 2.95411C16.522 2.95418 16.596 2.94393 16.6645 2.92402C16.7329 2.90411 16.7943 2.87498 16.8445 2.83851L18.1661 1.88271C18.2141 1.84848 18.2514 1.80833 18.2758 1.76458C18.3001 1.72083 18.3111 1.67435 18.3079 1.62781C18.3048 1.58127 18.2878 1.53559 18.2577 1.49341C18.2276 1.45123 18.1851 1.41338 18.1327 1.38204C18.0803 1.35071 18.0189 1.3265 17.9522 1.31083C17.8855 1.29515 17.8147 1.28831 17.744 1.2907C17.6732 1.2931 17.6039 1.30467 17.5399 1.32477C17.476 1.34486 17.4188 1.37308 17.3715 1.40778L16.05 2.36359C15.98 2.41419 15.9339 2.47706 15.9172 2.54457C15.9006 2.61208 15.9141 2.68131 15.9562 2.74386C15.9982 2.8064 16.067 2.85957 16.1542 2.89689C16.2414 2.93422 16.3431 2.95409 16.4471 2.95411Z" fill="#303640"/>
<path d="M10.0078 5.19196H13.2617L11.6258 4.23389L10.0078 5.19196Z" fill="#303640"/>
<path d="M6.45435 5.19204H7.83564L7.31965 4.44336L6.45435 5.19204Z" fill="#303640"/>
<path d="M9.22504 7.69255L9.82602 8.09122L8.32246 5.89795H6.63013L9.06933 7.57484C9.13261 7.60689 9.18554 7.64691 9.22504 7.69255Z" fill="#303640"/>
<path d="M13.749 5.89795H9.50122L11.6243 8.97849L13.749 5.89795Z" fill="#303640"/>
<path d="M14.6632 8.27393L12.9562 9.43893C15.3468 9.66058 17.5207 10.47 19.0393 11.704C20.558 12.9379 21.3085 14.5046 21.1396 16.0881C20.9706 17.6715 19.8947 19.154 18.1288 20.2364C16.363 21.3188 14.0385 21.9207 11.6243 21.9207C9.21003 21.9207 6.8856 21.3188 5.11974 20.2364C3.35388 19.154 2.27797 17.6715 2.109 16.0881C1.94002 14.5046 2.69055 12.9379 4.20922 11.704C5.72789 10.47 7.90171 9.66058 10.2923 9.43893L8.5854 8.27393C6.19784 8.70229 4.07874 9.61793 2.53341 10.8889C0.884192 12.2391 -0.0100854 13.9206 8.58138e-05 15.6524C8.58138e-05 19.8665 5.21446 23.295 11.6239 23.295C18.0333 23.295 23.2477 19.8665 23.2477 15.6524C23.2578 13.9223 22.3652 12.2424 20.719 10.8928C19.1735 9.61989 17.0529 8.70283 14.6632 8.27393Z" fill="#303640"/>
<path d="M8.83737 4.95492L10.2258 4.13281H8.27075L8.83737 4.95492Z" fill="#303640"/>
<path d="M15.93 4.44482L15.4147 5.19204H16.7936L15.93 4.44482Z" fill="#303640"/>
<path d="M14.9802 4.13281H13.0339L14.4202 4.94473L14.9802 4.13281Z" fill="#303640"/>
<path d="M14.9281 5.89795L13.4243 8.07841L16.6184 5.89795H14.9281Z" fill="#303640"/>
<path d="M11.547 1.86602C11.6175 1.86602 11.6874 1.85688 11.7525 1.83914C11.8176 1.8214 11.8768 1.7954 11.9267 1.76262C11.9765 1.72983 12.0161 1.69092 12.0431 1.64808C12.0701 1.60525 12.084 1.55935 12.084 1.51299V0.35303C12.084 0.259401 12.0274 0.169606 11.9267 0.1034C11.826 0.0371942 11.6894 0 11.547 0C11.4046 0 11.268 0.0371942 11.1674 0.1034C11.0667 0.169606 11.0101 0.259401 11.0101 0.35303V1.51299C11.0101 1.55935 11.024 1.60525 11.051 1.64808C11.0779 1.69092 11.1175 1.72983 11.1674 1.76262C11.2172 1.7954 11.2764 1.8214 11.3415 1.83914C11.4067 1.85688 11.4765 1.86602 11.547 1.86602ZM14.0417 2.18299C14.171 2.22223 14.3187 2.22609 14.4523 2.19374C14.5859 2.16138 14.6945 2.09545 14.7542 2.01046L15.5472 0.88076C15.5773 0.838618 15.5944 0.792976 15.5976 0.746463C15.6007 0.699951 15.5899 0.653485 15.5656 0.609742C15.5414 0.565999 15.5042 0.525843 15.4562 0.491586C15.4083 0.457329 15.3505 0.429647 15.2862 0.410135C15.2219 0.390623 15.1524 0.379665 15.0816 0.377894C15.0108 0.376122 14.9402 0.383571 14.8739 0.399812C14.8075 0.416053 14.7467 0.440765 14.6949 0.472526C14.6431 0.504286 14.6014 0.542467 14.5722 0.58487L13.7791 1.71452C13.7496 1.75661 13.7329 1.80212 13.7301 1.84845C13.7273 1.89477 13.7385 1.941 13.7628 1.98451C13.7872 2.02801 13.8244 2.06793 13.8722 2.10198C13.9201 2.13604 13.9777 2.16356 14.0417 2.18299ZM8.49326 2.01046C8.52233 2.05304 8.56395 2.09142 8.61572 2.12336C8.66749 2.1553 8.72838 2.18017 8.79487 2.19654C8.86136 2.2129 8.93213 2.22044 9.00307 2.2187C9.07402 2.21697 9.14374 2.206 9.20819 2.18644C9.27265 2.16687 9.33056 2.13909 9.37859 2.10472C9.42661 2.07034 9.46378 2.03004 9.48796 1.98615C9.51214 1.94226 9.52284 1.89565 9.51944 1.84903C9.51605 1.8024 9.49862 1.75668 9.46817 1.71452L8.67528 0.58482C8.64604 0.542416 8.60432 0.504235 8.55254 0.472475C8.50076 0.440715 8.43994 0.416003 8.37357 0.399762C8.30721 0.383521 8.23661 0.376072 8.16585 0.377843C8.09509 0.379615 8.02555 0.390572 7.96126 0.410085C7.89696 0.429597 7.83917 0.457278 7.79122 0.491536C7.74326 0.525793 7.70608 0.565949 7.68183 0.609692C7.65757 0.653435 7.64672 0.6999 7.64988 0.746413C7.65305 0.792926 7.67018 0.838567 7.70029 0.880709L8.49326 2.01046ZM6.40291 2.83851C6.45034 2.87283 6.50758 2.90068 6.57138 2.92045C6.63517 2.94022 6.70426 2.95154 6.77471 2.95376C6.84516 2.95598 6.91558 2.94905 6.98195 2.93337C7.04833 2.9177 7.10936 2.89358 7.16155 2.86239C7.21375 2.83121 7.2561 2.79357 7.28617 2.75163C7.31625 2.70968 7.33346 2.66425 7.33683 2.61794C7.34021 2.57162 7.32967 2.52532 7.30583 2.48167C7.28199 2.43803 7.2453 2.39791 7.19787 2.36359L5.87595 1.40778C5.77984 1.33932 5.64647 1.29861 5.50491 1.29453C5.36334 1.29045 5.22507 1.32333 5.12022 1.386C5.01537 1.44867 4.95245 1.53605 4.94517 1.62909C4.93789 1.72214 4.98685 1.8133 5.08137 1.88271L6.40291 2.83851ZM16.4471 2.95411C16.522 2.95418 16.596 2.94393 16.6645 2.92402C16.7329 2.90411 16.7943 2.87498 16.8445 2.83851L18.1661 1.88271C18.2141 1.84848 18.2514 1.80833 18.2758 1.76458C18.3001 1.72083 18.3111 1.67435 18.3079 1.62781C18.3048 1.58127 18.2878 1.53559 18.2577 1.49341C18.2276 1.45123 18.1851 1.41338 18.1327 1.38204C18.0803 1.35071 18.0189 1.3265 17.9522 1.31083C17.8855 1.29515 17.8147 1.28831 17.744 1.2907C17.6732 1.2931 17.6039 1.30467 17.5399 1.32477C17.476 1.34486 17.4188 1.37308 17.3715 1.40778L16.05 2.36359C15.98 2.41419 15.9339 2.47706 15.9172 2.54457C15.9006 2.61208 15.9141 2.68131 15.9562 2.74386C15.9982 2.8064 16.067 2.85957 16.1542 2.89689C16.2414 2.93422 16.3431 2.95409 16.4471 2.95411Z" stroke="#303640" stroke-width="4" mask="url(#path-1-inside-1_620_1859)"/>
<path d="M10.0078 5.19196H13.2617L11.6258 4.23389L10.0078 5.19196Z" stroke="#303640" stroke-width="4" mask="url(#path-1-inside-1_620_1859)"/>
<path d="M6.45435 5.19204H7.83564L7.31965 4.44336L6.45435 5.19204Z" stroke="#303640" stroke-width="4" mask="url(#path-1-inside-1_620_1859)"/>
<path d="M9.22504 7.69255L9.82602 8.09122L8.32246 5.89795H6.63013L9.06933 7.57484C9.13261 7.60689 9.18554 7.64691 9.22504 7.69255Z" stroke="#303640" stroke-width="4" mask="url(#path-1-inside-1_620_1859)"/>
<path d="M13.749 5.89795H9.50122L11.6243 8.97849L13.749 5.89795Z" stroke="#303640" stroke-width="4" mask="url(#path-1-inside-1_620_1859)"/>
<path d="M14.6632 8.27393L12.9562 9.43893C15.3468 9.66058 17.5207 10.47 19.0393 11.704C20.558 12.9379 21.3085 14.5046 21.1396 16.0881C20.9706 17.6715 19.8947 19.154 18.1288 20.2364C16.363 21.3188 14.0385 21.9207 11.6243 21.9207C9.21003 21.9207 6.8856 21.3188 5.11974 20.2364C3.35388 19.154 2.27797 17.6715 2.109 16.0881C1.94002 14.5046 2.69055 12.9379 4.20922 11.704C5.72789 10.47 7.90171 9.66058 10.2923 9.43893L8.5854 8.27393C6.19784 8.70229 4.07874 9.61793 2.53341 10.8889C0.884192 12.2391 -0.0100854 13.9206 8.58138e-05 15.6524C8.58138e-05 19.8665 5.21446 23.295 11.6239 23.295C18.0333 23.295 23.2477 19.8665 23.2477 15.6524C23.2578 13.9223 22.3652 12.2424 20.719 10.8928C19.1735 9.61989 17.0529 8.70283 14.6632 8.27393Z" stroke="#303640" stroke-width="4" mask="url(#path-1-inside-1_620_1859)"/>
<path d="M8.83737 4.95492L10.2258 4.13281H8.27075L8.83737 4.95492Z" stroke="#303640" stroke-width="4" mask="url(#path-1-inside-1_620_1859)"/>
<path d="M15.93 4.44482L15.4147 5.19204H16.7936L15.93 4.44482Z" stroke="#303640" stroke-width="4" mask="url(#path-1-inside-1_620_1859)"/>
<path d="M14.9802 4.13281H13.0339L14.4202 4.94473L14.9802 4.13281Z" stroke="#303640" stroke-width="4" mask="url(#path-1-inside-1_620_1859)"/>
<path d="M14.9281 5.89795L13.4243 8.07841L16.6184 5.89795H14.9281Z" stroke="#303640" stroke-width="4" mask="url(#path-1-inside-1_620_1859)"/>
</svg>
