<svg width="25" height="24" viewBox="0 0 25 24" fill="none" xmlns="http://www.w3.org/2000/svg">
<g clip-path="url(#clip0_620_1812)">
<path d="M11.9897 0.874286C12.0139 0.867689 12.0327 0.866016 12.047 0.866016C12.0613 0.866016 12.0801 0.867688 12.1043 0.874286C12.1256 0.880071 12.1604 0.892256 12.2033 0.9185C12.2077 0.921198 12.2122 0.924043 12.2167 0.927046C12.2196 0.928933 12.2226 0.930916 12.2256 0.932993C12.2225 0.935115 12.2196 0.937107 12.2167 0.93897C12.2122 0.941973 12.2077 0.944819 12.2033 0.947515C12.1601 0.973929 12.1252 0.986047 12.1043 0.991731C12.0916 0.995189 12.0804 0.997301 12.0705 0.998524C12.0616 0.999616 12.0539 1 12.047 1C12.0402 1 12.0324 0.999616 12.0236 0.998524C12.0137 0.997301 12.0024 0.995189 11.9897 0.99173C11.9689 0.986047 11.9339 0.973928 11.8908 0.947515C11.8864 0.944819 11.8819 0.941973 11.8773 0.93897C11.8745 0.937107 11.8715 0.935112 11.8685 0.932991C11.8715 0.930914 11.8744 0.928933 11.8773 0.927046C11.8819 0.924043 11.8864 0.921198 11.8908 0.9185C11.9336 0.892256 11.9685 0.880071 11.9897 0.874286Z" fill="#303640" stroke="#303640" stroke-width="2"/>
<mask id="path-2-inside-1_620_1812" fill="white">
<path d="M10.5078 5.19196H13.7617L12.1258 4.23389L10.5078 5.19196Z"/>
</mask>
<path d="M10.5078 5.19196H13.7617L12.1258 4.23389L10.5078 5.19196Z" fill="#303640"/>
<path d="M10.5078 5.19196L9.48879 3.47103L3.20485 7.19196H10.5078V5.19196ZM13.7617 5.19196V7.19196H21.1341L14.7724 3.46616L13.7617 5.19196ZM12.1258 4.23389L13.1366 2.50808L12.1202 1.91286L11.1068 2.51296L12.1258 4.23389ZM10.5078 7.19196H13.7617V3.19196H10.5078V7.19196ZM14.7724 3.46616L13.1366 2.50808L11.1151 5.95969L12.751 6.91777L14.7724 3.46616ZM11.1068 2.51296L9.48879 3.47103L11.5268 6.91289L13.1448 5.95482L11.1068 2.51296Z" fill="#303640" mask="url(#path-2-inside-1_620_1812)"/>
<mask id="path-4-inside-2_620_1812" fill="white">
<path d="M6.95435 5.19204H8.33564L7.81965 4.44336L6.95435 5.19204Z"/>
</mask>
<path d="M6.95435 5.19204H8.33564L7.81965 4.44336L6.95435 5.19204Z" fill="#303640"/>
<path d="M6.95435 5.19204L5.64574 3.67957L1.5861 7.19204H6.95435V5.19204ZM8.33564 5.19204V7.19204H12.143L9.98241 4.05707L8.33564 5.19204ZM7.81965 4.44336L9.46642 3.3084L8.19944 1.47007L6.51104 2.9309L7.81965 4.44336ZM6.95435 7.19204H8.33564V3.19204H6.95435V7.19204ZM9.98241 4.05707L9.46642 3.3084L6.17288 5.57832L6.68887 6.327L9.98241 4.05707ZM6.51104 2.9309L5.64574 3.67957L8.26295 6.7045L9.12826 5.95582L6.51104 2.9309Z" fill="#303640" mask="url(#path-4-inside-2_620_1812)"/>
<mask id="path-6-inside-3_620_1812" fill="white">
<path d="M9.72504 7.69255L10.326 8.09122L8.82246 5.89795H7.13013L9.56933 7.57484C9.63261 7.60689 9.68554 7.64691 9.72504 7.69255Z"/>
</mask>
<path d="M9.72504 7.69255L10.326 8.09122L8.82246 5.89795H7.13013L9.56933 7.57484C9.63261 7.60689 9.68554 7.64691 9.72504 7.69255Z" fill="#303640"/>
<path d="M9.72504 7.69255L8.21266 9.00125L8.39158 9.20803L8.61945 9.35918L9.72504 7.69255ZM10.326 8.09122L9.22043 9.75786L11.9756 6.96037L10.326 8.09122ZM8.82246 5.89795L10.4721 4.7671L9.87623 3.89795H8.82246V5.89795ZM7.13013 5.89795V3.89795H0.690576L5.9971 7.54605L7.13013 5.89795ZM9.56933 7.57484L8.4363 9.22295L8.54644 9.29867L8.66568 9.35906L9.56933 7.57484ZM8.61945 9.35918L9.22043 9.75786L11.4316 6.42459L10.8306 6.02592L8.61945 9.35918ZM11.9756 6.96037L10.4721 4.7671L7.17286 7.0288L8.67642 9.22208L11.9756 6.96037ZM8.82246 3.89795H7.13013V7.89795H8.82246V3.89795ZM5.9971 7.54605L8.4363 9.22295L10.7024 5.92674L8.26316 4.24985L5.9971 7.54605ZM8.66568 9.35906C8.53702 9.29389 8.37027 9.1834 8.21266 9.00125L11.2374 6.38386C11.0008 6.11041 10.7282 5.91989 10.473 5.79063L8.66568 9.35906Z" fill="#303640" mask="url(#path-6-inside-3_620_1812)"/>
<path d="M12.1246 7.21674L11.9049 6.89795H12.3445L12.1246 7.21674Z" fill="#303640" stroke="#303640" stroke-width="2"/>
<path d="M22.6339 16.1942C22.7217 15.3716 22.6101 14.57 22.3291 13.8146C22.6137 14.4206 22.7513 15.039 22.7477 15.6465H22.7477V15.6524C22.7477 16.2558 22.612 16.8559 22.3466 17.4364C22.4909 17.0361 22.5883 16.6211 22.6339 16.1942ZM1.61464 16.1942C1.66051 16.624 1.75892 17.0416 1.90477 17.4443C1.63706 16.8614 1.5001 16.2585 1.5001 15.6524L1.50007 15.6465C1.49648 15.0362 1.6353 14.4149 1.92256 13.8062C1.63927 14.5641 1.52653 15.3685 1.61464 16.1942Z" fill="#303640" stroke="#303640" stroke-width="2"/>
<mask id="path-10-inside-4_620_1812" fill="white">
<path d="M9.33737 4.95492L10.7258 4.13281H8.77075L9.33737 4.95492Z"/>
</mask>
<path d="M9.33737 4.95492L10.7258 4.13281H8.77075L9.33737 4.95492Z" fill="#303640"/>
<path d="M9.33737 4.95492L7.69061 6.0899L8.75002 7.627L10.3564 6.67586L9.33737 4.95492ZM10.7258 4.13281L11.7448 5.85376L18.029 2.13281H10.7258V4.13281ZM8.77075 4.13281V2.13281H4.96329L7.124 5.2678L8.77075 4.13281ZM10.3564 6.67586L11.7448 5.85376L9.7068 2.41187L8.31837 3.23397L10.3564 6.67586ZM10.7258 2.13281H8.77075V6.13281H10.7258V2.13281ZM7.124 5.2678L7.69061 6.0899L10.9841 3.81993L10.4175 2.99783L7.124 5.2678Z" fill="#303640" mask="url(#path-10-inside-4_620_1812)"/>
<mask id="path-12-inside-5_620_1812" fill="white">
<path d="M16.43 4.44482L15.9147 5.19204H17.2936L16.43 4.44482Z"/>
</mask>
<path d="M16.43 4.44482L15.9147 5.19204H17.2936L16.43 4.44482Z" fill="#303640"/>
<path d="M16.43 4.44482L17.7386 2.93236L16.0507 1.47196L14.7835 3.30938L16.43 4.44482ZM15.9147 5.19204L14.2682 4.0566L12.1059 7.19204H15.9147V5.19204ZM17.2936 5.19204V7.19204H22.6618L18.6022 3.67957L17.2936 5.19204ZM14.7835 3.30938L14.2682 4.0566L17.5611 6.32748L18.0764 5.58026L14.7835 3.30938ZM15.9147 7.19204H17.2936V3.19204H15.9147V7.19204ZM18.6022 3.67957L17.7386 2.93236L15.1214 5.95729L15.985 6.7045L18.6022 3.67957Z" fill="#303640" mask="url(#path-12-inside-5_620_1812)"/>
<mask id="path-14-inside-6_620_1812" fill="white">
<path d="M15.4802 4.13281H13.5339L14.9202 4.94473L15.4802 4.13281Z"/>
</mask>
<path d="M15.4802 4.13281H13.5339L14.9202 4.94473L15.4802 4.13281Z" fill="#303640"/>
<path d="M15.4802 4.13281L17.1266 5.26828L19.289 2.13281H15.4802V4.13281ZM13.5339 4.13281V2.13281H6.16171L12.5232 5.8586L13.5339 4.13281ZM14.9202 4.94473L13.9095 6.67052L15.5122 7.6092L16.5666 6.0802L14.9202 4.94473ZM15.4802 2.13281H13.5339V6.13281H15.4802V2.13281ZM12.5232 5.8586L13.9095 6.67052L15.931 3.21894L14.5447 2.40702L12.5232 5.8586ZM16.5666 6.0802L17.1266 5.26828L13.8337 2.99735L13.2738 3.80926L16.5666 6.0802Z" fill="#303640" mask="url(#path-14-inside-6_620_1812)"/>
<mask id="path-16-inside-7_620_1812" fill="white">
<path d="M15.4281 5.89795L13.9243 8.07841L17.1184 5.89795H15.4281Z"/>
</mask>
<path d="M15.4281 5.89795L13.9243 8.07841L17.1184 5.89795H15.4281Z" fill="#303640"/>
<path d="M15.4281 5.89795V3.89795H14.3779L13.7817 4.76247L15.4281 5.89795ZM13.9243 8.07841L12.2779 6.94294L15.0519 9.73023L13.9243 8.07841ZM17.1184 5.89795L18.2461 7.54977L23.5955 3.89795H17.1184V5.89795ZM13.7817 4.76247L12.2779 6.94294L15.5707 9.21389L17.0745 7.03343L13.7817 4.76247ZM15.0519 9.73023L18.2461 7.54977L15.9908 4.24613L12.7967 6.4266L15.0519 9.73023ZM17.1184 3.89795H15.4281V7.89795H17.1184V3.89795Z" fill="#303640" mask="url(#path-16-inside-7_620_1812)"/>
</g>
<defs>
<clipPath id="clip0_620_1812">
<rect width="24" height="24" fill="white" transform="translate(0.5)"/>
</clipPath>
</defs>
</svg>
