<svg width="34" height="32" viewBox="0 0 34 32" fill="none" xmlns="http://www.w3.org/2000/svg">
<path fill-rule="evenodd" clip-rule="evenodd" d="M19.2852 21.9018C17.2589 23.5305 14.7068 24.5014 11.9339 24.5014C5.34298 24.5014 0 19.0166 0 12.2507C0 5.48484 5.34298 0 11.9339 0C18.5247 0 23.8677 5.48484 23.8677 12.2507C23.8677 14.1901 23.4287 16.0243 22.6471 17.6542L33.7559 27.9417L30.1895 32L19.2852 21.9018ZM21.1137 12.2507C21.1137 17.4552 17.0038 21.6743 11.9339 21.6743C6.86394 21.6743 2.75397 17.4552 2.75397 12.2507C2.75397 7.04618 6.86394 2.82709 11.9339 2.82709C17.0038 2.82709 21.1137 7.04618 21.1137 12.2507Z" fill="url(#paint0_linear_623_1861)"/>
<defs>
<linearGradient id="paint0_linear_623_1861" x1="25.1207" y1="-4" x2="-5.49582" y2="18.5324" gradientUnits="userSpaceOnUse">
<stop stop-color="#666666"/>
<stop offset="1"/>
</linearGradient>
</defs>
</svg>
