<svg width="27" height="10" viewBox="0 0 27 10" fill="none" xmlns="http://www.w3.org/2000/svg">
<g clip-path="url(#clip0_620_1834)">
<path d="M10.5386 3.56925L10.5616 3.59145L10.5871 3.61054C10.806 3.77411 11.0646 3.87832 11.3356 3.91596C11.6035 3.95316 11.8776 3.92457 12.1315 3.83203C13.3148 3.44001 14.6095 3.43954 15.793 3.83061C15.9803 3.9025 16.1798 3.93941 16.3806 3.94002C16.5663 3.94961 16.7527 3.92546 16.9297 3.86834C17.1124 3.80939 17.2827 3.71607 17.4296 3.5922L17.4427 3.58116L17.455 3.56925C17.6932 3.33861 17.8046 3.00331 17.6848 2.66714C17.5763 2.36263 17.3155 2.16332 17.0432 2.05526L17.0316 2.05063L17.0197 2.0466C15.0676 1.3831 12.9259 1.3831 10.9739 2.0466L10.962 2.05063L10.9504 2.05526C10.678 2.16332 10.4173 2.36263 10.3088 2.66714C10.189 3.00331 10.3004 3.33861 10.5386 3.56925ZM24.4836 3.5H26.3844C26.6483 3.5 26.9085 3.40328 27.1059 3.22043C27.3047 3.03639 27.4244 2.77818 27.4244 2.5C27.4244 2.22183 27.3047 1.96361 27.1059 1.77957C26.9085 1.59672 26.6483 1.5 26.3844 1.5H24.4836C24.2197 1.5 23.9595 1.59672 23.7621 1.77957C23.5633 1.96361 23.4436 2.22183 23.4436 2.5C23.4436 2.77818 23.5633 3.03639 23.7621 3.22043C23.9595 3.40328 24.2197 3.5 24.4836 3.5ZM1.54439 3.5H3.44519C3.70913 3.5 3.96927 3.40328 4.16674 3.22043C4.3655 3.03639 4.48519 2.77818 4.48519 2.5C4.48519 2.22182 4.3655 1.96361 4.16674 1.77957C3.96927 1.59673 3.70913 1.5 3.44519 1.5H1.54439C1.28046 1.5 1.02032 1.59673 0.822853 1.77957C0.624089 1.96361 0.504395 2.22182 0.504395 2.5C0.504395 2.77818 0.624089 3.03639 0.822853 3.22043C1.02032 3.40328 1.28046 3.5 1.54439 3.5ZM7.4844 1.5H20.4444C20.7083 1.5 20.9685 1.40328 21.1659 1.22043C21.3647 1.03639 21.4844 0.778175 21.4844 0.5C21.4844 0.221825 21.3647 -0.0363929 21.1659 -0.220434C20.9685 -0.403275 20.7083 -0.5 20.4444 -0.5H7.4844C7.22046 -0.5 6.96032 -0.403275 6.76285 -0.220434C6.56409 -0.0363938 6.44439 0.221824 6.44439 0.5C6.44439 0.778176 6.56409 1.03639 6.76285 1.22043C6.96032 1.40328 7.22046 1.5 7.4844 1.5Z" fill="#767676" stroke="#303640"/>
<path d="M7.48441 -0.5V-0.500163L7.47163 -0.499837C6.75331 -0.481466 6.04502 -0.332034 5.38712 -0.0592192C4.72919 0.213611 4.13342 0.604979 3.63498 1.09419C3.13645 1.58349 2.74496 2.16122 2.48499 2.79528C2.22604 3.42685 2.10319 4.10073 2.12442 4.77815C2.12553 6.14242 2.40581 7.44242 3.09353 8.41598C3.80071 9.41709 4.90266 10.02 6.40441 10.02C7.20716 10.02 8.00962 9.70697 8.74158 9.23741C9.47724 8.76547 10.1729 8.11586 10.7722 7.39116C11.9545 5.96165 12.8444 4.13595 12.8444 2.66C12.8444 1.92867 12.6951 1.32603 12.3812 0.847818C12.0647 0.365637 11.6132 0.0590725 11.0998 -0.13515C10.1347 -0.500283 8.84359 -0.500144 7.55942 -0.500005C7.53441 -0.500003 7.50941 -0.5 7.48441 -0.5ZM20.4572 -0.499837L20.4572 -0.5H20.4444C19.1357 -0.5 17.8154 -0.494606 16.8299 -0.113913C16.3173 0.0840607 15.8665 0.392511 15.5499 0.871991C15.2353 1.34849 15.0844 1.94665 15.0844 2.67C15.0844 4.14595 15.9744 5.97165 17.1566 7.40116C17.756 8.12586 18.4516 8.77547 19.1872 9.24741C19.9192 9.71697 20.7217 10.03 21.5244 10.03C23.0262 10.03 24.1281 9.42709 24.8353 8.42598C25.5229 7.45256 25.8032 6.1528 25.8044 4.78874C25.8272 4.11059 25.7055 3.43571 25.4473 2.80301C25.1881 2.16764 24.7968 1.58858 24.2982 1.09809C23.7995 0.607685 23.2032 0.215322 22.5445 -0.0581967C21.8858 -0.3317 21.1765 -0.481487 20.4572 -0.499837Z" fill="#767676" stroke="#303640"/>
<path d="M1.54439 3.5H1.80975C1.66136 3.98611 1.58504 4.4906 1.58439 4.99936V5C1.58439 6.64633 2.01052 8.02561 2.85367 9.00078C3.70495 9.98534 4.93171 10.5 6.40439 10.5C8.07068 10.5 9.76377 9.37713 11.0299 7.9924C12.2098 6.70207 13.1272 5.06753 13.345 3.6143C13.5456 3.56181 13.7541 3.53487 13.9644 3.53487C14.1739 3.53487 14.3816 3.5616 14.5815 3.61369C14.79 5.06811 15.7033 6.70262 16.8826 7.9924C18.1498 9.37819 19.8482 10.5 21.5244 10.5C22.9971 10.5 24.2238 9.98534 25.0751 9.00078C25.9183 8.02561 26.3444 6.64633 26.3444 5L26.3444 4.99936C26.3437 4.4906 26.2674 3.98611 26.119 3.5H26.3844C26.6483 3.5 26.9085 3.40328 27.1059 3.22043C27.3047 3.03639 27.4244 2.77818 27.4244 2.5C27.4244 2.22182 27.3047 1.96361 27.1059 1.77957C26.9085 1.59672 26.6483 1.5 26.3844 1.5H24.9744C24.4461 0.90286 23.7893 0.417394 23.0478 0.074131C22.2312 -0.303942 21.3326 -0.5 20.4228 -0.5H7.46279C6.55302 -0.5 5.65442 -0.303942 4.83778 0.074131C4.09633 0.417394 3.4395 0.90286 2.91116 1.5H1.54439C1.28046 1.5 1.02032 1.59672 0.822853 1.77957C0.624089 1.96361 0.504395 2.22182 0.504395 2.5C0.504395 2.77818 0.624089 3.03639 0.822853 3.22043C1.02032 3.40328 1.28046 3.5 1.54439 3.5ZM6.40439 8.5C5.18042 8.5 4.53461 7.97415 4.16315 7.31365C3.76819 6.61137 3.66439 5.71426 3.66439 5C3.66439 4.0847 4.05673 3.19833 4.7694 2.53845C5.48336 1.87738 6.45938 1.5 7.4844 1.5C8.26632 1.5 8.91039 1.51076 9.44049 1.55354C9.97442 1.59662 10.3592 1.67006 10.6356 1.77895C10.9 1.8831 11.0467 2.01192 11.1386 2.16846C11.2369 2.33617 11.3044 2.59064 11.3044 3C11.3044 3.45887 11.1448 4.03778 10.8388 4.66851C10.5359 5.29293 10.1051 5.93622 9.60168 6.5159C9.09776 7.09617 8.53208 7.60011 7.96632 7.95552C7.3953 8.31423 6.85922 8.5 6.40439 8.5ZM14.8176 1.5C14.8004 1.53929 14.7841 1.57896 14.7687 1.61899C14.2325 1.52716 13.6829 1.52671 13.1466 1.61761C13.1321 1.57807 13.1167 1.53886 13.1004 1.5H14.8176ZM21.5244 8.5C21.0702 8.5 20.5344 8.31347 19.9632 7.95319C19.3974 7.59628 18.8316 7.09046 18.3274 6.50879C17.8238 5.92771 17.3928 5.28358 17.0898 4.65982C16.7837 4.02949 16.6244 3.45331 16.6244 3C16.6244 2.59064 16.6918 2.33617 16.7902 2.16846C16.8821 2.01192 17.0288 1.8831 17.2932 1.77895C17.5696 1.67006 17.9544 1.59662 18.4883 1.55354C19.0184 1.51076 19.6625 1.5 20.4444 1.5C21.4694 1.5 22.4454 1.87738 23.1594 2.53845C23.8721 3.19833 24.2644 4.0847 24.2644 5C24.2644 5.73028 24.1603 6.62639 23.7661 7.32404C23.3959 7.97923 22.751 8.5 21.5244 8.5Z" fill="#303640" stroke="#303640"/>
</g>
<defs>
<clipPath id="clip0_620_1834">
<rect width="27" height="10" fill="white"/>
</clipPath>
</defs>
</svg>
