<svg width="23" height="24" viewBox="0 0 23 24" fill="none" xmlns="http://www.w3.org/2000/svg">
<path d="M11.427 0.000121978C11.1243 0.00426239 10.8358 0.113322 10.6249 0.303366C10.414 0.49341 10.2978 0.748911 10.302 1.01379V1.51379H4.01628C3.86489 1.512 3.7146 1.53653 3.57414 1.58598C3.43368 1.63543 3.30585 1.7088 3.19807 1.80184C3.09029 1.89488 3.0047 2.00572 2.94629 2.12794C2.88788 2.25016 2.8578 2.38132 2.8578 2.51379H1.15913C1.00769 2.51192 0.857335 2.5364 0.7168 2.58581C0.576264 2.63523 0.448355 2.70859 0.340504 2.80163C0.232653 2.89468 0.147011 3.00555 0.0885566 3.12781C0.030102 3.25007 0 3.38127 0 3.51379C0 3.64632 0.030102 3.77752 0.0885566 3.89978C0.147011 4.02204 0.232653 4.13291 0.340504 4.22595C0.448355 4.319 0.576264 4.39236 0.7168 4.44177C0.857335 4.49119 1.00769 4.51567 1.15913 4.51379H21.7306C21.882 4.51567 22.0324 4.49119 22.1729 4.44177C22.3134 4.39236 22.4413 4.319 22.5492 4.22595C22.657 4.13291 22.7427 4.02204 22.8011 3.89978C22.8596 3.77752 22.8897 3.64632 22.8897 3.51379C22.8897 3.38127 22.8596 3.25007 22.8011 3.12781C22.7427 3.00555 22.657 2.89468 22.5492 2.80163C22.4413 2.70859 22.3134 2.63523 22.1729 2.58581C22.0324 2.5364 21.882 2.51192 21.7306 2.51379H20.0319C20.0319 2.38132 20.0018 2.25016 19.9434 2.12794C19.885 2.00572 19.7994 1.89488 19.6916 1.80184C19.5838 1.7088 19.456 1.63543 19.3156 1.58598C19.1751 1.53653 19.0248 1.512 18.8734 1.51379H12.5877V1.01379C12.5898 0.880004 12.5612 0.747208 12.5036 0.623267C12.446 0.499327 12.3605 0.386763 12.2523 0.292242C12.144 0.197721 12.0152 0.123164 11.8735 0.072987C11.7317 0.0228097 11.5799 -0.00196763 11.427 0.000121978ZM1.15913 6.51379L3.20824 21.7482C3.3431 22.7552 4.31724 23.5138 5.4761 23.5138H17.4136C18.5725 23.5138 19.5455 22.7552 19.6815 21.7482L21.7306 6.51379H1.15913Z" fill="black"/>
</svg>
